# xmcd
#
# Track frame offsets:
#	150
#	14932
#	28596
#	44283
#	64930
#	81994
#	96304
#	110083
#	123273
#	135566
#	156697
#	170578
#	190208
# Disc length: 2744 seconds
# Revision: 1
# Processed by: cddbd v1.5.2PL0 Copyright (c) Steve Scherf et al.
#
# Submitted via: libkcddb 0.31
#
DISCID=c00ab60d
DTITLE=Diversos - O Encontro dos 13 Sanfoneiros
DYEAR=1900
DGENRE=Folklore
TTITLE0=Forró pé no chão - Menina Festeira
TTITLE1=Eliésio do Acordeon - Moido Danado
TTITLE2=Evandro Lima - Forró Daqui
TTITLE3=Rui Mário - Baião de Doido
TTITLE4=Beto e o Forró da Ilha - Aconchego
TTITLE5=Edson e Sodré - Homenagem a João do Vale
TTITLE6=António Neto e Forró do Bom
TTITLE7=Nunes do Acordeon - Você Fugiu de Mim
TTITLE8=Pedrinho Gonsalo - O Tocador
TTITLE9=Chiqinho do Acordeon - Relembrando o Passado
TTITLE10=Pedrinho do Acordeon - Apertadinho
TTITLE11=Cabo Zé - Maranhão a Capital e São Luis
TTITLE12=Cicero do Acordeon - Saudade de Gonzaga
EXTD=
EXTT0=
EXTT1=
EXTT2=
EXTT3=
EXTT4=
EXTT5=
EXTT6=
EXTT7=
EXTT8=
EXTT9=
EXTT10=
EXTT11=
EXTT12=
PLAYORDER=
